<?xml version="1.0" encoding="utf-8"?>
<!-- Generator: Adobe Illustrator 23.0.0, SVG Export Plug-In . SVG Version: 6.00 Build 0)  -->
<svg version="1.1" id="Layer_1" xmlns="http://www.w3.org/2000/svg" xmlns:xlink="http://www.w3.org/1999/xlink" x="0px" y="0px"
	 viewBox="0 0 340.63 71.04" style="enable-background:new 0 0 340.63 71.04;" xml:space="preserve">
<style type="text/css">
	.st0{clip-path:url(#SVGID_2_);fill:#36707F;}
	.st1{clip-path:url(#SVGID_2_);fill:#BFE47F;}
</style>
<g>
	<defs>
		<rect id="SVGID_1_" x="0.24" y="0.23" width="339.74" height="70.61"/>
	</defs>
	<clipPath id="SVGID_2_">
		<use xlink:href="#SVGID_1_"  style="overflow:visible;"/>
	</clipPath>
	<path class="st0" d="M27.79,43.17h9.62l0.2-3.54h-0.07c-0.65,1.51-2.08,2.39-4.13,2.39h-0.87c-1.24,0-1.96-0.04-1.96-0.83V27.9
		h-3.14v0.09c0.26,0.41,0.35,1.35,0.35,1.61V43.17z"/>
	<path class="st0" d="M47.86,31.78h0.06l-0.11-3.55c-0.87-0.41-2.22-0.63-3.42-0.63c-3.12,0-5.17,1.5-5.17,4.01
		c0,2.42,1.88,3.38,3.67,4.48c1.55,0.94,3.13,1.61,3.13,3.44c0,1.6-1.55,2.55-3.07,2.55c-1.25,0-2.92-0.65-4.01-1.54v0.98
		c0.83,0.83,2.59,1.97,4.7,1.97c3.02,0,5.22-1.9,5.22-4.47c0-2.75-2.26-3.78-4.09-4.87c-1.57-0.94-3.06-1.66-3.06-3.24
		c0-1.41,1-2.22,2.4-2.22C45.83,28.68,47.14,30.12,47.86,31.78"/>
	<path class="st0" d="M23.99,31.78h0.06l-0.11-3.55c-0.87-0.41-2.23-0.63-3.42-0.63c-3.12,0-5.17,1.5-5.17,4.01
		c0,2.42,1.88,3.38,3.67,4.48c1.55,0.94,3.13,1.61,3.13,3.44c0,1.6-1.55,2.55-3.07,2.55c-1.26,0-2.92-0.65-4.01-1.54v0.98
		c0.83,0.83,2.59,1.97,4.7,1.97c3.02,0,5.22-1.9,5.22-4.47c0-2.75-2.26-3.78-4.09-4.87c-1.57-0.94-3.06-1.66-3.06-3.24
		c0-1.41,1-2.22,2.4-2.22C21.96,28.68,23.27,30.12,23.99,31.78"/>
	<path class="st1" d="M11.03,19.43v1.11c0.72-0.28,4.29-1.88,7.03-6.27c2.86-1.28,5.1,0.21,8.65,0.21c4.34,0,6.69-1.67,7.05-1.98
		c-0.51-0.09-1.4-0.34-2.16-0.7c-1.4-0.66-2.45-2.05-4.31-2.33c1.36-0.58,3.11-1.22,4.85-1.22c3.99,0,3.97,5.13,10.44,5.13
		c0.81,0,1.83-0.12,2.52-0.38c-0.47-0.23-0.93-0.64-1.7-1.57c-1.9-2.3-2.7-2.95-3.69-3.44c10.76-0.48,6.51,8.77,14.83,10.43
		c-0.43-0.55-0.78-1.58-0.99-2.71c-0.2-1.14-0.47-2.44-1-3.16c0.79,0.35,1.44,0.72,2.08,1.79c1.05,1.74,1.24,5.25,5.41,7.13
		c2.68,1.21,3.33,1.67,3.65,1.94c-1-7.56-4.98-8.68-9.16-11.17c-1.66-0.99-2.15-1.43-2.15-1.43c0.65,0.32,1.8,0.78,3.53,1.11
		c1.86,0.36,3.06,0.76,3.06,0.76s-0.58-1.96-2.04-2.86C59.52,9.29,60.07,8,60.07,8c-3.2,0.05-5.08-1.89-8.6-1.89
		c-2.28,0-3.5,0.9-5.21,0.9c-0.73,0-1.21-0.12-1.38-0.23c3.45-1.9,4.09-3.99,4.09-3.99c0,0.09-1.11,0.2-2.42,0.2
		c-1.31,0-3.85-0.25-6.15,0.23c-3.28,0.69-4.98,3.41-4.98,3.41s-1.67-0.15-3.41,0.38c3-2.85,2.59-6.09,2.59-6.09
		s-0.82,0.56-2.07,0.9c-0.77,0.21-2.48,0.69-3.67,2.12c-0.15-2.43-0.96-3.72-0.96-3.72c-1.03,1.7-4.17,3.18-4.17,7.63
		c0,0.5,0.04,0.9,0.06,1.17c-1.18,0.07-3.51,0.87-5.39,3.15c0.79-1.66,0.68-3.74,0.9-4.86c0.32-1.61,0.95-2.27,0.95-2.27
		C19.17,5.26,12.69,7.17,12.69,16C12.69,18.06,11.87,18.96,11.03,19.43"/>
	<path class="st1" d="M52.9,51.64v-1.11c-0.72,0.28-4.29,1.88-7.03,6.27c-2.86,1.28-5.1-0.21-8.65-0.21c-4.34,0-6.69,1.67-7.05,1.98
		c0.51,0.09,1.4,0.34,2.16,0.7c1.4,0.66,2.45,2.05,4.31,2.33c-1.36,0.58-3.11,1.22-4.85,1.22c-3.99,0-3.97-5.13-10.44-5.13
		c-0.81,0-1.83,0.12-2.52,0.38c0.47,0.23,0.93,0.64,1.7,1.57c1.9,2.3,2.7,2.95,3.69,3.44c-10.76,0.48-6.51-8.77-14.83-10.43
		c0.43,0.55,0.78,1.58,0.99,2.71c0.2,1.14,0.47,2.44,0.99,3.16c-0.78-0.35-1.44-0.72-2.08-1.79c-1.05-1.74-1.24-5.25-5.41-7.13
		c-2.68-1.21-3.33-1.67-3.65-1.94c1,7.56,4.98,8.68,9.16,11.17c1.66,0.99,2.15,1.43,2.15,1.43c-0.65-0.32-1.8-0.78-3.53-1.11
		C6.17,58.8,4.96,58.4,4.96,58.4S5.55,60.36,7,61.25c-2.59,0.52-3.15,1.81-3.15,1.81c3.2-0.05,5.08,1.89,8.6,1.89
		c2.28,0,3.5-0.9,5.21-0.9c0.73,0,1.2,0.12,1.38,0.23c-3.45,1.9-4.09,3.99-4.09,3.99c0-0.09,1.11-0.2,2.42-0.2
		c1.31,0,3.84,0.25,6.15-0.23c3.28-0.69,4.98-3.41,4.98-3.41s1.67,0.15,3.41-0.38c-3,2.85-2.59,6.09-2.59,6.09s0.82-0.56,2.07-0.9
		c0.77-0.21,2.48-0.69,3.67-2.12c0.15,2.43,0.96,3.72,0.96,3.72c1.03-1.7,4.17-3.19,4.17-7.63c0-0.5-0.04-0.9-0.06-1.17
		c1.18-0.07,3.51-0.87,5.39-3.15c-0.79,1.66-0.68,3.74-0.9,4.86c-0.32,1.61-0.95,2.27-0.95,2.27c1.09-0.22,7.57-2.13,7.57-10.96
		C51.24,53.01,52.06,52.11,52.9,51.64"/>
	<path class="st0" d="M75.87,33.95c1.96,0,2.88,1.24,2.88,2.87v0.33h-1.31v-0.3c0-1.04-0.5-1.76-1.57-1.76c-0.82,0-1.3,0.5-1.3,1.31
		c0,0.65,0.36,1.01,0.99,1.27l1.25,0.47c1.32,0.52,2.07,1.22,2.07,2.59c0,1.57-1.11,2.58-2.78,2.58c-1.96,0-3.05-1.11-3.05-3.01
		v-0.26h1.33v0.22c0,1.27,0.63,1.92,1.71,1.92c0.85,0,1.37-0.46,1.37-1.31c0-0.74-0.4-1.11-1.17-1.4l-1.2-0.43
		c-1.17-0.43-1.93-1.11-1.93-2.52C73.17,35,74.21,33.95,75.87,33.95"/>
	<polygon class="st0" points="82.79,43.17 80.16,34.09 81.65,34.09 83.57,40.96 83.63,40.96 85.54,34.09 86.93,34.09 84.3,43.17 	
		"/>
	<polygon class="st0" points="93.88,43.17 88.82,43.17 88.82,34.09 93.82,34.09 93.82,35.32 90.27,35.32 90.27,37.91 93.06,37.91 
		93.06,39.1 90.27,39.1 90.27,41.94 93.88,41.94 	"/>
	<polygon class="st0" points="100.61,40.3 100.66,40.3 100.66,34.09 102,34.09 102,43.17 100.82,43.17 97.45,36.68 97.39,36.68 
		97.39,43.17 96.04,43.17 96.04,34.09 97.45,34.09 	"/>
	<path class="st0" d="M106.87,33.95c1.96,0,2.88,1.24,2.88,2.87v0.33h-1.31v-0.3c0-1.04-0.5-1.76-1.57-1.76
		c-0.82,0-1.3,0.5-1.3,1.31c0,0.65,0.36,1.01,0.99,1.27l1.25,0.47c1.32,0.52,2.07,1.22,2.07,2.59c0,1.57-1.11,2.58-2.78,2.58
		c-1.96,0-3.05-1.11-3.05-3.01v-0.26h1.33v0.22c0,1.27,0.63,1.92,1.71,1.92c0.85,0,1.37-0.46,1.37-1.31c0-0.74-0.4-1.11-1.17-1.4
		l-1.2-0.43c-1.17-0.43-1.93-1.11-1.93-2.52C104.18,35,105.21,33.95,106.87,33.95"/>
	<polygon class="st0" points="116.58,43.17 114.24,39.23 113.47,40.39 113.47,43.17 112,43.17 112,34.09 113.47,34.09 113.47,38.66 
		116.49,34.09 118.06,34.09 115.32,38.14 118.22,43.17 	"/>
	<path class="st0" d="M123.86,34.09l2.66,9.08h-1.48l-0.69-2.46h-2.85l-0.69,2.46h-1.37l2.65-9.08H123.86z M121.85,39.52h2.18
		l-1.05-3.76h-0.06L121.85,39.52z"/>
	<polygon class="st0" points="133.37,34.09 133.37,41.94 136.93,41.94 136.93,43.17 131.9,43.17 131.9,34.09 	"/>
	<rect x="139.01" y="34.09" class="st0" width="1.47" height="9.08"/>
	<polygon class="st0" points="144.93,43.17 144.93,35.32 142.56,35.32 142.56,34.09 148.81,34.09 148.81,35.32 146.39,35.32 
		146.39,43.17 	"/>
	<polygon class="st0" points="152.23,43.17 152.23,35.32 149.86,35.32 149.86,34.09 156.11,34.09 156.11,35.32 153.69,35.32 
		153.69,43.17 	"/>
	<polygon class="st0" points="163.22,43.17 158.17,43.17 158.17,34.09 163.17,34.09 163.17,35.32 159.61,35.32 159.61,37.91 
		162.4,37.91 162.4,39.1 159.61,39.1 159.61,41.94 163.22,41.94 	"/>
	<path class="st0" d="M169.79,43.17c-0.19-0.4-0.29-0.91-0.36-2.07c-0.06-1.08-0.32-1.54-1.35-1.54h-1.25v3.62h-1.44v-9.08h2.79
		c2.06,0,3.03,1.07,3.03,2.67c0,1.28-0.71,2.06-1.6,2.26c0.92,0.26,1.21,0.91,1.27,2c0.09,1.15,0.16,1.67,0.43,2.15H169.79z
		 M168.1,38.4c1.18,0,1.63-0.52,1.63-1.56c0-0.96-0.45-1.56-1.63-1.56h-1.28v3.11H168.1z"/>
	<path class="st0" d="M177.22,34.09l2.66,9.08h-1.48l-0.69-2.46h-2.85l-0.69,2.46h-1.37l2.65-9.08H177.22z M175.2,39.52h2.18
		l-1.05-3.76h-0.06L175.2,39.52z"/>
	<polygon class="st0" points="182.86,43.17 182.86,35.32 180.49,35.32 180.49,34.09 186.74,34.09 186.74,35.32 184.32,35.32 
		184.32,43.17 	"/>
	<path class="st0" d="M188.42,40.03v-5.93h1.47v5.86c0,1.44,0.49,2.13,1.56,2.13c1.08,0,1.57-0.69,1.57-2.13v-5.86h1.47v5.93
		c0,2.22-1.24,3.29-3.04,3.29C189.66,43.31,188.42,42.25,188.42,40.03"/>
	<path class="st0" d="M201.33,43.17c-0.19-0.4-0.29-0.91-0.36-2.07c-0.06-1.08-0.32-1.54-1.35-1.54h-1.25v3.62h-1.44v-9.08h2.79
		c2.06,0,3.03,1.07,3.03,2.67c0,1.28-0.71,2.06-1.6,2.26c0.92,0.26,1.21,0.91,1.27,2c0.09,1.15,0.16,1.67,0.43,2.15H201.33z
		 M199.64,38.4c1.18,0,1.63-0.52,1.63-1.56c0-0.96-0.45-1.56-1.63-1.56h-1.28v3.11H199.64z"/>
	<path class="st0" d="M207.32,33.95c1.96,0,2.88,1.24,2.88,2.87v0.33h-1.31v-0.3c0-1.04-0.5-1.76-1.57-1.76
		c-0.82,0-1.3,0.5-1.3,1.31c0,0.65,0.36,1.01,0.99,1.27l1.25,0.47c1.33,0.52,2.07,1.22,2.07,2.59c0,1.57-1.11,2.58-2.78,2.58
		c-1.96,0-3.05-1.11-3.05-3.01v-0.26h1.32v0.22c0,1.27,0.63,1.92,1.71,1.92c0.85,0,1.37-0.46,1.37-1.31c0-0.74-0.4-1.11-1.17-1.4
		l-1.2-0.43c-1.17-0.43-1.93-1.11-1.93-2.52C204.62,35,205.66,33.95,207.32,33.95"/>
	<path class="st0" d="M216.15,34.09l2.67,9.08h-1.48l-0.69-2.46h-2.85l-0.69,2.46h-1.37l2.65-9.08H216.15z M213.74,32.09h1.25v1.37
		h-1.25V32.09z M214.13,39.52h2.17l-1.05-3.76h-0.06L214.13,39.52z M215.54,32.09h1.25v1.37h-1.25V32.09z"/>
	<polygon class="st0" points="222.19,34.09 222.19,41.94 225.75,41.94 225.75,43.17 220.72,43.17 220.72,34.09 	"/>
	<polygon class="st0" points="228.73,34.09 228.73,41.94 232.29,41.94 232.29,43.17 227.26,43.17 227.26,34.09 	"/>
	<path class="st0" d="M236.18,33.95c1.96,0,2.88,1.24,2.88,2.87v0.33h-1.31v-0.3c0-1.04-0.5-1.76-1.57-1.76
		c-0.82,0-1.3,0.5-1.3,1.31c0,0.65,0.36,1.01,0.99,1.27l1.25,0.47c1.33,0.52,2.07,1.22,2.07,2.59c0,1.57-1.11,2.58-2.78,2.58
		c-1.96,0-3.05-1.11-3.05-3.01v-0.26h1.33v0.22c0,1.27,0.63,1.92,1.71,1.92c0.85,0,1.37-0.46,1.37-1.31c0-0.74-0.4-1.11-1.17-1.4
		l-1.2-0.43c-1.17-0.43-1.93-1.11-1.93-2.52C233.48,35,234.52,33.95,236.18,33.95"/>
	<polygon class="st0" points="245.88,43.17 243.55,39.23 242.77,40.39 242.77,43.17 241.3,43.17 241.3,34.09 242.77,34.09 
		242.77,38.66 245.8,34.09 247.37,34.09 244.63,38.14 247.53,43.17 	"/>
	<path class="st0" d="M253.17,34.09l2.66,9.08h-1.48l-0.69-2.46h-2.85l-0.69,2.46h-1.37l2.65-9.08H253.17z M251.15,39.52h2.18
		l-1.05-3.76h-0.06L251.15,39.52z"/>
	<path class="st0" d="M259.2,43.17h-1.45v-9.08h2.46c2.12,0,3.08,1.07,3.08,2.88c0,1.81-0.96,2.88-3.08,2.88h-1.01V43.17z
		 M260.11,38.66c1.14,0,1.76-0.4,1.76-1.68c0-1.27-0.62-1.69-1.76-1.69h-0.91v3.37H260.11z"/>
	<polygon class="st0" points="270.38,43.17 265.32,43.17 265.32,34.09 270.32,34.09 270.32,35.32 266.76,35.32 266.76,37.91 
		269.56,37.91 269.56,39.1 266.76,39.1 266.76,41.94 270.38,41.94 	"/>
	<polygon class="st0" points="274.21,43.17 274.21,35.32 271.83,35.32 271.83,34.09 278.08,34.09 278.08,35.32 275.66,35.32 
		275.66,43.17 	"/>
	<rect x="283.6" y="34.09" class="st0" width="1.47" height="9.08"/>
	<polygon class="st0" points="291.06,43.17 291.06,34.09 295.93,34.09 295.93,35.32 292.53,35.32 292.53,38.08 295.23,38.08 
		295.23,39.29 292.53,39.29 292.53,43.17 	"/>
	<rect x="298.01" y="34.09" class="st0" width="1.47" height="9.08"/>
	<polygon class="st0" points="306.57,40.3 306.63,40.3 306.63,34.09 307.97,34.09 307.97,43.17 306.79,43.17 303.41,36.68 
		303.36,36.68 303.36,43.17 302,43.17 302,34.09 303.41,34.09 	"/>
	<polygon class="st0" points="311.97,34.09 311.97,41.94 315.53,41.94 315.53,43.17 310.5,43.17 310.5,34.09 	"/>
	<path class="st0" d="M320.85,34.09l2.66,9.08h-1.48l-0.69-2.46h-2.85l-0.69,2.46h-1.37l2.65-9.08H320.85z M318.84,39.52h2.18
		l-1.05-3.76h-0.06L318.84,39.52z"/>
	<polygon class="st0" points="330,40.3 330.06,40.3 330.06,34.09 331.4,34.09 331.4,43.17 330.21,43.17 326.84,36.68 326.79,36.68 
		326.79,43.17 325.43,43.17 325.43,34.09 326.84,34.09 	"/>
	<path class="st0" d="M333.93,34.09h2.51c2.39,0,3.54,1.38,3.54,4.26v0.55c0,2.88-1.15,4.26-3.54,4.26h-2.51V34.09z M336.31,41.97
		c1.45,0,2.18-0.66,2.18-2.82v-1.04c0-2.16-0.72-2.82-2.18-2.82h-0.91v6.68H336.31z"/>
</g>
</svg>
